<?xml version="1.0" standalone="no"?><!DOCTYPE svg PUBLIC "-//W3C//DTD SVG 1.1//EN" "http://www.w3.org/Graphics/SVG/1.1/DTD/svg11.dtd"><svg t="1672128761504" class="icon" viewBox="0 0 1024 1024" version="1.1" xmlns="http://www.w3.org/2000/svg" p-id="11718" xmlns:xlink="http://www.w3.org/1999/xlink" width="200" height="200"><path d="M514.304 421.9904c-44.9536 0-86.272 13.9776-119.1424 37.4272 3.3792 2.4064 6.7072 4.864 9.8816 7.4752h1.3824c32.0512-26.6752 75.6736-43.3664 123.9552-44.2368-5.2736-0.4096-10.6496-0.6656-16.0768-0.6656zM435.5584 132.1472c-159.8976 35.4816-280.064 166.2976-290.4064 313.9584-0.5632 7.9872 9.7792 13.1072 17.152 8.3968 31.232-20.0192 70.3488-31.9488 112.8448-31.9488 35.8912 0 69.376 8.5504 97.7408 23.296-6.6048-61.5936-13.7216-222.464 62.6688-313.7024zM617.6256 132.1472c85.6576 95.3344 69.9904 257.024 65.3312 308.2752 3.584 2.56 7.0144 5.1712 10.3424 7.936h2.1504c32.9728-27.6992 86.1696-20.1728 136.3456-20.1728 40.2944 0 36.352 4.9152 66.5088 23.6032 7.5264 4.6592 24.8832 1.9456 24.2688-6.0416-12.9024-160.6144-122.8288-293.8368-304.9472-313.6z"  p-id="11719"></path><path d="M402.6368 451.2768s14.2848 0.512 14.7456 0.512c29.5936-25.6 66.7648-42.0352 111.5648-42.0352s85.4016 15.8208 114.9952 41.4208c0 0 28.0064-209.4592-57.2416-310.0672-9.3184-10.9568-17.152-17.2544-37.8368-14.4896-11.52 1.536-37.0176 5.4272-51.9168 14.4896-133.888 81.4592-94.3104 310.1696-94.3104 310.1696z"  p-id="11720"></path><path d="M654.7968 776.1408H411.6992c-11.8272 0-13.4144 4.864-13.4144 24.064v1.0752c1.1776 6.4 3.4816 13.1584 12.8512 15.3088v118.016c0 8.4992 7.7824 15.36 17.408 15.36h213.8624c9.6256 0 17.408-6.8608 17.408-15.36v-105.8304c9.3696-2.0992 4.1984-9.984 4.1984-19.4048v-13.2608c0-11.0592 2.56-19.968-9.216-19.968z"  p-id="11721"></path><path d="M937.8816 444.6208c-15.5136-209.8688-202.8544-374.2208-426.4448-374.2208h-0.1536-0.0512c-225.536 0.1024-412.8768 165.9904-426.5984 377.7024-0.6656 10.0864 4.5056 19.456 13.4656 24.5248 2.3552 1.3312 4.8128 2.2528 7.3216 2.8672l239.616 265.8304a39.43424 39.43424 0 0 0-10.8032 27.1872v16.1792c0 13.9776 7.3216 26.5728 18.6368 33.6384v118.9888c0 18.7904 15.7696 34.0992 35.1744 34.0992h243.5584c19.4048 0 35.1744-15.3088 35.1744-34.0992v-119.04a39.51104 39.51104 0 0 0 18.6368-33.6384v-16.1792c0-10.5472-4.1472-20.1216-10.8544-27.2384l239.872-268.4928c3.5328-0.4608 7.0144-1.5872 10.24-3.4816 8.9088-5.12 13.9264-14.592 13.2096-24.6272z m-293.3248 284.1088h-51.7632l70.4512-244.48c33.792-30.6176 78.6432-47.5136 126.4128-47.5136 33.6384 0 65.8432 8.3456 94.0544 24.2688l-239.1552 267.7248z m-269.4656 0L137.216 464.896c29.952-18.0224 64.6144-27.5456 101.1712-27.5456 46.7968 0 90.9312 15.7696 124.7744 44.3904L435.2 728.7296H375.0912z m13.312-283.4432C380.6208 372.9408 371.4048 164.9664 511.5392 102.4c132.1472 56.4224 131.1232 265.6768 126.208 341.1968l-0.4608-0.3072c-0.8192-0.512-1.6384-1.024-2.4576-1.5872-1.5872-1.024-3.2256-2.0992-4.864-3.072-0.9728-0.5632-1.8944-1.1264-2.8672-1.6896-1.536-0.9216-3.072-1.792-4.608-2.6624-1.024-0.5632-2.048-1.1264-3.072-1.6384-1.536-0.8192-3.072-1.6384-4.6592-2.4064-1.024-0.512-2.048-1.024-3.1232-1.536-1.5872-0.768-3.2256-1.536-4.8128-2.2528l-3.072-1.3824c-1.7408-0.768-3.4816-1.4848-5.2224-2.2016-0.9216-0.3584-1.8432-0.768-2.816-1.1264-2.0992-0.8192-4.1984-1.5872-6.3488-2.3552-0.6144-0.2048-1.2288-0.4608-1.792-0.6656-2.7648-0.9216-5.5296-1.8432-8.3456-2.6624-0.6144-0.1536-1.1776-0.3072-1.792-0.512-2.2016-0.6144-4.4032-1.28-6.656-1.8432-0.9728-0.256-1.9968-0.4608-2.9696-0.7168-1.8432-0.4608-3.7376-0.8704-5.5808-1.28-1.1264-0.256-2.2528-0.4608-3.3792-0.6656a193.92 193.92 0 0 0-8.8576-1.536l-5.3248-0.768-3.5328-0.4608c-1.8432-0.2048-3.6352-0.4096-5.4784-0.5632l-3.4304-0.3072c-1.9968-0.1536-3.9936-0.256-6.0416-0.3584l-2.9184-0.1536c-2.9696-0.1024-5.9904-0.2048-9.0112-0.2048-3.0208 0-6.0416 0.0512-9.0624 0.2048l-2.9696 0.1536c-1.9968 0.1024-4.0448 0.2048-6.0416 0.3584l-3.5328 0.3072c-1.792 0.1536-3.584 0.3584-5.4272 0.5632l-3.7376 0.4608c-1.7408 0.256-3.4304 0.4608-5.1712 0.768l-3.7376 0.6144-5.0688 0.9216-3.6864 0.768c-1.6896 0.3584-3.328 0.768-5.0176 1.1776-1.2288 0.3072-2.4064 0.5632-3.6352 0.8704l-5.0688 1.3824c-1.1264 0.3072-2.304 0.6656-3.4304 0.9728-1.792 0.5632-3.5328 1.1264-5.3248 1.6896-1.024 0.3584-2.048 0.6656-3.0208 0.9728-2.0992 0.7168-4.1984 1.536-6.2976 2.304-0.6144 0.256-1.28 0.4608-1.8944 0.7168-2.7136 1.0752-5.4272 2.2016-8.0896 3.3792-0.5632 0.256-1.1776 0.5632-1.7408 0.8192-2.0992 0.9216-4.1472 1.8944-6.1952 2.8672l-2.7648 1.3824c-1.6896 0.8704-3.328 1.6896-5.0176 2.6112-1.024 0.5632-1.9968 1.1264-3.0208 1.6896l-4.608 2.6112-3.072 1.8432c-1.4848 0.9216-2.9184 1.8432-4.352 2.7648-1.024 0.6656-2.048 1.3312-3.0208 2.048-0.512 0.512-1.1776 0.9216-1.8432 1.3824z m78.7456 283.4432L394.3936 479.232c32.9216-27.0848 75.1616-41.9328 119.9104-41.9328a195.5072 195.5072 0 0 1 42.0352 4.5056c4.1472 0.9216 8.192 1.9456 12.2368 3.1232 10.1888 2.9184 20.0704 6.656 29.5424 11.2128 4.096 1.9968 8.0896 4.1472 11.9808 6.4 1.4848 0.8704 2.9184 1.6896 4.4032 2.6112 6.4512 3.9936 12.6464 8.3456 18.5344 13.1072l-72.192 250.4704h-93.696z m439.3984-289.8944c-34.6112-21.4528-74.8032-32.768-116.8384-32.768-43.8784 0-85.7088 12.3904-120.832 35.2768 4.7616-73.984 4.4032-249.2928-94.5152-335.4112 176.0256 26.624 315.5968 162.7648 332.1856 332.9024zM448.6144 105.8816C345.344 193.3312 349.2352 364.2368 356.7104 439.296c-34.7136-21.248-75.6224-32.6656-118.3232-32.6656-44.3392 0-86.528 12.1344-122.4192 35.2256 15.1552-171.9296 155.0336-309.3504 332.6464-335.9744z m206.1312 678.8096c0 4.1472-2.816 7.7312-6.912 8.704a15.33952 15.33952 0 0 0-11.7248 14.9504v129.024c0 1.8432-2.048 3.3792-4.4544 3.3792H388.0448c-2.4064 0-4.4544-1.536-4.4544-3.3792v-128.6144c0-7.1168-4.8128-13.4144-11.9296-15.4112-3.9936-1.024-6.7584-4.608-6.7584-8.6528v-16.1792c0-4.9664 4.0448-9.0112 9.0112-9.0112h271.7184c4.9664 0 9.0112 4.0448 9.0112 9.0112v16.1792z"  p-id="11722"></path></svg>
