<?xml version="1.0" standalone="no"?><!DOCTYPE svg PUBLIC "-//W3C//DTD SVG 1.1//EN" "http://www.w3.org/Graphics/SVG/1.1/DTD/svg11.dtd"><svg t="1672125433150" class="icon" viewBox="0 0 1024 1024" version="1.1" xmlns="http://www.w3.org/2000/svg" p-id="7038" xmlns:xlink="http://www.w3.org/1999/xlink" width="200" height="200"><path d="M459.17 214.29v65.34l8.61-8.83 1.3-1.5c7.55-6.91 19.41-6.05 25.88 1.5l23.08 25.88 12.72-11.44c6.03-5.61 15.08-6.47 21.77-2.58l12.3 7.77v-76.14H459.17z m142.32 0v108.27c0 10.14-8.19 18.33-18.11 18.33-4.33 0-7.77-1.3-10.8-3.25l-27.16-16.61-16.38 15.1c-7.33 6.69-18.55 6.25-25.46-1.3l-0.42-0.42-22.86-25.46-26.74 26.74c-7.33 6.91-18.77 6.69-25.88 0-3.45-3.86-5.19-8.39-5.19-13.14V214.29H269.81v425.9h484.35v-425.9H601.49z m-392.47 425.9V184.1c0-16.83 13.36-30.83 30.61-30.83h544.72c16.83 0 30.63 14 30.63 30.83v456.08h62.09c16.41 0 30.21 13.8 30.21 30.63v169.5c0 16.83-13.8 30.41-30.21 30.41h-90.78c-16.61 0-30.41-13.58-30.41-30.41v-32.77H618.73v32.77c0 16.83-14.02 30.41-30.63 30.41H435.87c-16.83 0-30.19-13.58-30.19-30.41v-32.77H268.09v32.77c0 16.83-13.8 30.41-30.41 30.41H146.9c-16.38 0-30.19-13.58-30.19-30.41v-169.5c0-16.83 13.8-30.63 30.19-30.63h62.12v0.01z m637.45 61.03H177.54v108.69h29.55v-32.77c0-16.61 14-30.63 30.6-30.63H435.88c16.83 0 30.41 14.02 30.41 30.63v32.77h91.44v-32.77c0-16.61 13.58-30.63 30.39-30.63H786.31c16.6 0 30.19 14.02 30.19 30.63v32.77h29.99V701.22h-0.02z m-301.49-92.08c-9.91 0-18.33-7.97-18.33-18.33 0-9.92 8.41-18.33 18.33-18.33h12.74c-0.22-1.3-0.66-2.58-0.66-4.75V458.19c-6.03 4.53-15.08 4.97-21.55 0.22-8.19-5.83-9.94-17.25-4.33-25.66l28.46-39.24c3.25-5.19 9.08-8.63 15.55-8.63 6.89 0 12.92 3.89 15.94 9.05l28.04 38.82c5.81 8.41 4.31 19.83-4.11 25.66a18.1 18.1 0 0 1-21.35-0.22v109.55c0 2.16-0.42 3.44-0.86 4.75H658c-0.44-1.3-0.88-2.58-0.88-4.75V458.19c-6.03 4.53-14.86 4.97-21.33 0.22-7.99-5.83-10.14-17.25-4.33-25.66l28.68-39.24c3.44-5.19 9.05-8.63 15.52-8.63 6.69 0 12.52 3.89 15.96 9.05l28.04 38.82c5.59 8.41 3.86 19.83-4.33 25.66-6.47 4.75-15.08 4.31-21.55-0.22v109.55c0 2.16-0.22 3.44-0.66 4.75h12.74c10.33 0 18.33 8.41 18.33 18.33 0 10.36-7.99 18.33-18.33 18.33H544.98v-0.01z m46.15-215.21c1.72 2.58 2.58 5.83 2.58 9.05l-2.58-9.05z m100.5 0c1.3 2.58 2.16 5.83 2.16 9.05l-2.16-9.05z"  p-id="7039"></path></svg>
