<?xml version="1.0" standalone="no"?><!DOCTYPE svg PUBLIC "-//W3C//DTD SVG 1.1//EN" "http://www.w3.org/Graphics/SVG/1.1/DTD/svg11.dtd"><svg t="1672124239904" class="icon" viewBox="0 0 1024 1024" version="1.1" xmlns="http://www.w3.org/2000/svg" p-id="8892" xmlns:xlink="http://www.w3.org/1999/xlink" width="200" height="200"><path d="M471.07999971 919.07c-193.25999971-19.19999971-346.95-172.89-366.14999971-366.14999971H99.50000029c-20.7 0-37.50000029-16.80000029-37.50000029-37.50000029v-6.84c0-20.7 16.80000029-37.50000029 37.50000029-37.50000029h5.42999971c19.19999971-193.25999971 172.89-346.95 366.14999971-366.14999971V99.50000029c0-20.7 16.80000029-37.50000029 37.50000029-37.50000029h6.84c20.7 0 37.50000029 16.80000029 37.50000029 37.50000029v5.42999971c193.25999971 19.19999971 346.95 172.89 366.14999971 366.14999971h5.42999971c20.7 0 37.50000029 16.80000029 37.50000029 37.50000029v6.84c0 20.7-16.80000029 37.50000029-37.50000029 37.50000029h-5.42999971c-19.19999971 193.25999971-172.89 346.95-366.14999971 366.14999971v5.42999971c0 20.7-16.80000029 37.50000029-37.50000029 37.50000029h-6.84c-20.7 0-37.50000029-16.80000029-37.50000029-37.50000029v-5.42999971z m0-82.32000029v-82.71c0-20.7 16.80000029-37.50000029 37.50000029-37.49999942h6.84c20.7 0 37.50000029 16.80000029 37.50000029 37.49999942v82.71a327.44999971 327.44999971 0 0 0 283.79999971-283.82999942h-82.68000029c-20.7 0-37.50000029-16.80000029-37.49999942-37.50000029v-6.84c0-20.7 16.80000029-37.50000029 37.49999942-37.50000029h82.71a327.44999971 327.44999971 0 0 0-283.82999942-283.79999971v82.68000029c0 20.7-16.80000029 37.50000029-37.50000029 37.49999942h-6.84c-20.7 0-37.50000029-16.80000029-37.50000029-37.49999942V187.25000029a327.44999971 327.44999971 0 0 0-283.79999971 283.82999942h82.68000029c20.7 0 37.50000029 16.80000029 37.49999942 37.50000029v6.84c0 20.7-16.80000029 37.50000029-37.49999942 37.50000029H187.25000029a327.44999971 327.44999971 0 0 0 283.82999942 283.79999971zM512 634.69999971a122.69999971 122.69999971 0 1 1 0-245.45999971 122.69999971 122.69999971 0 0 1 0 245.45999971z" p-id="8893"></path></svg>