<?xml version="1.0" standalone="no"?><!DOCTYPE svg PUBLIC "-//W3C//DTD SVG 1.1//EN" "http://www.w3.org/Graphics/SVG/1.1/DTD/svg11.dtd"><svg t="1672127958375" class="icon" viewBox="0 0 1024 1024" version="1.1" xmlns="http://www.w3.org/2000/svg" p-id="11499" xmlns:xlink="http://www.w3.org/1999/xlink" width="200" height="200"><path d="M831.9 565.1c-49.1 0-95.8-18.5-131.5-52-10.9-10.2-20.4-21.4-28.5-33.6-8.1 12.1-17.6 23.4-28.5 33.6-35.7 33.5-82.5 52-131.5 52s-95.8-18.5-131.5-52c-10.8-10.1-20.3-21.4-28.4-33.4-8.1 12.1-17.6 23.3-28.4 33.4-35.7 33.5-82.5 52-131.5 52C86.2 565.1 0 479.1 0 373.4c0-17.3 2.3-34.4 6.9-50.9 1.8-10.2 5.3-20.9 10.7-32.5L97.8 52.4C102 40.2 113.4 32 126.3 32h771.3c12.9 0 24.3 8.2 28.4 20.4l80.3 237.5c4.9 10.8 8.3 20.8 10.2 30.4 5 17.2 7.5 35.1 7.5 53.1 0 105.7-86.2 191.7-192.1 191.7z m-190.3-213h60.5l2 29.9c4.4 66.9 60.5 119.3 127.8 119.3 70.6 0 128.1-57.3 128.1-127.8 0-12.4-1.8-24.7-5.3-36.5l-0.5-1.6-0.3-1.7c-0.9-5.1-3.1-11.2-6.4-18.3l-0.8-1.6-0.6-1.7L880 116.3c-4.1-12.2-15.6-20.4-28.4-20.4H172.2c-12.9 0-24.3 8.2-28.4 20.4L77.1 313.7l-0.8 1.6c-4.4 9.3-6 15.6-6.5 19.2l-0.3 1.9-0.5 1.9c-3.3 11.4-4.9 23.2-4.9 35.2 0 70.5 57.4 127.8 128.1 127.8 67.2 0 123.4-52.4 127.8-119.3l2-29.9h60.3l2 29.9c4.4 66.9 60.5 119.3 127.8 119.3S635.5 448.9 639.9 382l1.7-29.9zM802 992H222c-67.3 0-122-54.7-122-121.8V671.4c0-17.6 14.3-32 32-32s32 14.3 32 32v198.7c0 31.9 26 57.9 58 57.9h580c32 0 58-26 58-57.9V671.4c0-17.6 14.3-32 32-32s32 14.3 32 32v198.7c0 67.2-54.7 121.9-122 121.9z"  p-id="11500"></path><path d="M352.1 457c-17.6 0-32-14.4-32-32V224.4c0-17.6 14.4-32 32-32s32 14.4 32 32V425c-0.1 17.6-14.4 32-32 32zM672.1 457c-17.6 0-32-14.4-32-32V224.4c0-17.6 14.4-32 32-32s32 14.4 32 32V425c0 17.6-14.4 32-32 32z"  p-id="11501"></path></svg>
